<svg width="1280" height="640" xmlns="http://www.w3.org/2000/svg">
  <defs>
    <linearGradient id="grad1" x1="0%" y1="0%" x2="100%" y2="100%">
      <stop offset="0%" style="stop-color:#0D1117;stop-opacity:1" />
      <stop offset="100%" style="stop-color:#161B22;stop-opacity:1" />
    </linearGradient>
  </defs>
  
  <!-- Background -->
  <rect width="1280" height="640" fill="url(#grad1)"/>
  
  <!-- Corner decorations -->
  <path d="M40 40 L140 40 L140 50 L50 50 L50 140 L40 140 Z" fill="#A78BFA" opacity="0.3"/>
  <path d="M1240 40 L1140 40 L1140 50 L1230 50 L1230 140 L1240 140 Z" fill="#A78BFA" opacity="0.3"/>
  <path d="M40 600 L140 600 L140 590 L50 590 L50 500 L40 500 Z" fill="#A78BFA" opacity="0.3"/>
  <path d="M1240 600 L1140 600 L1140 590 L1230 590 L1230 500 L1240 500 Z" fill="#A78BFA" opacity="0.3"/>
  
  <!-- Badge -->
  <rect x="490" y="100" width="300" height="30" rx="15" fill="rgba(63,185,80,0.1)" stroke="#3FB950" stroke-width="1"/>
  <text x="640" y="120" font-family="Arial, sans-serif" font-size="14" fill="#3FB950" text-anchor="middle">100% SYNTHETIC DATA</text>
  
  <!-- Logo -->
  <text x="640" y="200" font-family="Arial, sans-serif" font-size="72" fill="#A78BFA" text-anchor="middle">📊</text>
  
  <!-- Title -->
  <text x="640" y="300" font-family="Arial, sans-serif" font-size="52" fill="#FFFFFF" font-weight="bold" text-anchor="middle">Enterprise Benchmark</text>
  
  <!-- Subtitle -->
  <text x="640" y="360" font-family="Arial, sans-serif" font-size="28" fill="#8B949E" text-anchor="middle">Synthetic Manufacturing Data for AI</text>
  
  <!-- Tech badges -->
  <rect x="380" y="400" width="100" height="36" rx="6" fill="rgba(167,139,250,0.1)" stroke="#A78BFA" stroke-width="1"/>
  <text x="430" y="424" font-family="Arial, sans-serif" font-size="16" fill="#A78BFA" text-anchor="middle">Python</text>
  
  <rect x="500" y="400" width="80" height="36" rx="6" fill="rgba(167,139,250,0.1)" stroke="#A78BFA" stroke-width="1"/>
  <text x="540" y="424" font-family="Arial, sans-serif" font-size="16" fill="#A78BFA" text-anchor="middle">SQL</text>
  
  <rect x="600" y="400" width="80" height="36" rx="6" fill="rgba(167,139,250,0.1)" stroke="#A78BFA" stroke-width="1"/>
  <text x="640" y="424" font-family="Arial, sans-serif" font-size="16" fill="#A78BFA" text-anchor="middle">CSV</text>
  
  <rect x="700" y="400" width="80" height="36" rx="6" fill="rgba(167,139,250,0.1)" stroke="#A78BFA" stroke-width="1"/>
  <text x="740" y="424" font-family="Arial, sans-serif" font-size="16" fill="#A78BFA" text-anchor="middle">JSON</text>
  
  <!-- Tagline -->
  <text x="640" y="500" font-family="Arial, sans-serif" font-size="22" fill="#3FB950" text-anchor="middle">Evaluate AI Models on Realistic Data</text>
  
  <!-- Author -->
  <text x="640" y="560" font-family="Arial, sans-serif" font-size="18" fill="#8B949E" text-anchor="middle">by Samar Khalid</text>
</svg>
